<svg id="visual" viewBox="0 0 900 900" width="900" height="900" xmlns="http://www.w3.org/2000/svg" xmlns:xlink="http://www.w3.org/1999/xlink" version="1.1"><g transform="translate(416.6041791584533 445.3784297309104)"><path d="M199.6 -302.1C251.5 -277.3 281.3 -209.7 305 -143.5C328.8 -77.3 346.5 -12.4 323 35.8C299.5 84 234.8 115.7 193.4 172.8C152.1 230 134.1 312.7 91.8 335.4C49.6 358.2 -16.9 321.1 -78.6 291.9C-140.2 262.7 -197.1 241.4 -228.2 200.5C-259.4 159.6 -264.8 99.2 -266.6 42.4C-268.4 -14.4 -266.5 -67.6 -262.1 -137.2C-257.6 -206.8 -250.4 -292.7 -206.3 -321C-162.2 -349.4 -81.1 -320.2 -3.6 -314.6C73.9 -309 147.8 -326.9 199.6 -302.1" fill="none" stroke="#CAD748" stroke-width="3"></path></g></svg>