<svg id="visual" viewBox="0 0 900 900" width="900" height="900" xmlns="http://www.w3.org/2000/svg" xmlns:xlink="http://www.w3.org/1999/xlink" version="1.1"><g transform="translate(487.5565330354138 511.6452152336784)"><path d="M165.7 -248.9C204.1 -200.2 217.1 -137.5 234.6 -77.7C252 -17.8 273.9 39.1 257.6 81.9C241.3 124.7 186.8 153.4 137.5 177.7C88.2 202 44.1 222 -6.7 231.2C-57.4 240.3 -114.8 238.7 -153.8 211C-192.8 183.4 -213.4 129.7 -248.4 69.5C-283.4 9.3 -332.9 -57.5 -338 -130.8C-343.1 -204.2 -303.8 -284.1 -240.1 -324.6C-176.3 -365 -88.2 -366 -12.2 -349.2C63.7 -332.3 127.4 -297.6 165.7 -248.9" fill="none" stroke="#CAD748" stroke-width="6"></path></g></svg>