<svg id="visual" viewBox="0 0 900 900" width="900" height="900" xmlns="http://www.w3.org/2000/svg" xmlns:xlink="http://www.w3.org/1999/xlink" version="1.1"><g transform="translate(451.863080088943 455.9212567090575)"><path d="M137.4 -214.7C183.8 -155.3 231.2 -122.9 259.7 -75C288.2 -27.1 297.7 36.4 285.6 98.8C273.6 161.2 239.9 222.6 188.7 265.9C137.5 309.3 68.8 334.7 -9.7 348C-88.2 361.4 -176.3 362.7 -212 314.3C-247.7 265.9 -230.8 167.7 -244.3 88.3C-257.7 9 -301.5 -51.6 -293.5 -101.4C-285.6 -151.1 -226 -190 -168.4 -245.8C-110.9 -301.6 -55.4 -374.3 -5 -367.4C45.5 -360.6 90.9 -274.1 137.4 -214.7" fill="none" stroke="#CAD748" stroke-width="6"></path></g></svg>