<svg width="718" height="1032" viewBox="0 0 718 1032" fill="none" xmlns="http://www.w3.org/2000/svg">
<g clip-path="url(#clip0_4_4)">
<g opacity="0.51">
<path d="M27.0808 488.622C5.33049 650.155 78.1966 773.352 100.066 809.094C140.283 874.869 166.293 917.418 195.254 913.801C236.708 908.637 257.387 812.259 264.312 688.801C267.763 627.072 267.786 558.585 265.24 491.358C262.694 424.132 257.578 358.143 250.795 301.435C241.967 227.879 232.924 191.613 211.126 185.616C185.616 178.619 145.09 213.791 108.181 270.999C71.2717 328.207 38.0274 407.474 27.1046 488.645L27.0808 488.622Z" stroke="#CAD748" stroke-miterlimit="10"/>
<path d="M119.889 237.255C87.2156 265.669 53.4478 301.911 28.8656 347.482C5.61603 390.555 -10.0185 440.29 -15.3966 492.025C-31.9593 651.416 37.3373 774.446 67.2976 817.923C112.488 883.46 145.375 928.222 183.355 927.127C199.513 926.651 212.578 915.609 226.427 899.546C258.125 862.804 284.706 796.22 301.887 712.788C315.452 646.871 323.9 571.054 321.686 494.404C319.45 425.06 311.763 357.525 302.054 299.008C290.394 228.736 278.876 192.374 255.507 181.38C220.811 165.079 173.36 190.78 119.936 237.231L119.889 237.255Z" stroke="#CAD748" stroke-miterlimit="10"/>
<path d="M131.621 203.535C83.8365 230.164 36.0523 267.263 1.59442 319.568C-32.8635 371.874 -52.5673 430.843 -57.8978 495.475C-70.8195 652.487 -3.87884 775.755 34.5294 826.823C83.9317 892.526 124.386 938.883 171.457 940.525C189.994 941.167 205.677 931.172 222.906 918.322C269.167 883.84 310.454 821.112 339.439 736.847C363.617 666.575 380.179 583.595 378.085 497.498C376.348 426.036 366.044 356.977 353.265 296.628C339.082 229.64 324.947 192.398 299.817 177.168C256.078 150.706 198.347 166.316 131.597 203.511L131.621 203.535Z" stroke="#CAD748" stroke-miterlimit="10"/>
<path d="M143.353 169.815C79.7434 193.588 18.6092 232.567 -25.6768 291.631C-68.7968 349.124 -95.3304 421.348 -100.375 498.878C-110.441 653.415 -45.3331 777.159 1.78476 835.676C55.0184 901.807 103.445 949.306 159.606 953.875C180.523 955.588 199.323 947.164 219.455 937.05C281.517 905.876 336.845 846.003 377.062 760.858C412.281 686.279 436.387 596.088 434.555 500.568C433.151 426.988 420.586 356.43 404.547 294.249C388.104 230.544 371.279 192.136 344.198 172.98C291.702 135.856 222.334 140.259 143.353 169.791V169.815Z" stroke="#CAD748" stroke-miterlimit="10"/>
<path d="M155.084 136.094C75.5075 156.06 1.14223 197.847 -52.9481 263.717C-107.038 329.587 -138.331 411.877 -142.853 502.329C-150.492 654.367 -86.9777 778.801 -30.9836 844.576C25.8434 911.326 82.48 959.681 147.707 967.296C171.004 970.009 193.04 963.608 215.957 955.85C294.272 929.316 363.569 871.181 414.661 784.941C461.279 706.244 492.548 608.653 491.025 503.709C489.93 428.035 475.343 355.906 455.83 291.916C437.387 231.425 417.754 191.827 388.579 168.839C327.612 120.769 246.25 113.249 155.084 136.142V136.094Z" stroke="#CAD748" stroke-miterlimit="10"/>
<path d="M166.816 102.374C71.3669 117.866 -16.3484 163.104 -80.2193 235.78C-143.329 307.575 -181.546 402.358 -185.354 505.732C-190.851 655.271 -128.836 780.562 -63.7518 853.428C-3.45051 920.94 61.5388 969.938 135.809 980.646C161.51 984.359 186.71 980.242 212.459 974.578C306.98 953.78 390.531 896.5 452.236 808.952C510.467 726.329 548.399 621.147 547.448 506.755C546.496 428.963 530.266 355.216 507.064 289.489C486.837 232.186 464.23 191.351 432.913 164.579C363.688 105.373 270.333 85.5498 166.792 102.35L166.816 102.374Z" stroke="#CAD748" stroke-miterlimit="10"/>
<path d="M178.548 68.6302C67.369 79.1961 -33.9581 128.241 -107.467 207.818C-180.69 286.634 -225.023 392.815 -227.808 509.135C-231.353 656.199 -170.79 782.489 -96.4726 862.257C-32.7921 930.625 40.6689 980.099 123.958 993.972C152.062 998.66 180.309 996.995 209.008 993.282C319.497 979.004 417.659 921.987 489.859 832.939C559.846 746.604 604.56 633.616 603.941 509.801C603.299 429.891 585.499 354.431 558.37 287.086C536.525 232.853 510.848 190.899 477.342 160.367C400.026 89.9046 294.796 57.5647 178.596 68.6302H178.548Z" stroke="#CAD748" stroke-miterlimit="10"/>
<path d="M190.256 34.91C63.5139 40.2881 -51.4251 93.5218 -134.762 179.905C-217.956 265.907 -268.786 383.32 -270.333 512.585C-272.046 657.175 -212.958 784.631 -129.265 871.157C-62.2527 940.453 19.7276 990.284 112.06 1007.37C142.567 1013.01 173.765 1013.89 205.486 1012.06C331.681 1004.78 444.764 947.735 527.411 856.998C609.272 767.141 660.673 646.157 660.34 512.918C660.031 430.914 640.898 353.55 609.581 284.73C586.26 233.471 557.418 190.47 521.652 156.179C436.364 74.3891 319.354 29.4368 190.256 34.91Z" stroke="#CAD748" stroke-miterlimit="10"/>
<path d="M-312.81 515.988C-312.81 658.151 -255.198 786.844 -162.033 880.009C-68.8682 973.174 59.8254 1030.79 201.988 1030.79C486.313 1030.79 716.786 800.29 716.786 515.988C716.786 373.825 659.174 245.132 566.009 151.967C472.868 58.8021 344.151 1.18982 201.988 1.18982C59.8254 1.18982 -68.8682 58.8021 -162.033 151.967C-255.198 245.132 -312.81 373.825 -312.81 515.988Z" stroke="#CAD748" stroke-miterlimit="10"/>
</g>
</g>
<defs>
<clipPath id="clip0_4_4">
<rect width="1032" height="1032" fill="white" transform="translate(-314)"/>
</clipPath>
</defs>
</svg>
