<svg width="241" height="100" viewBox="0 0 241 100" fill="none" xmlns="http://www.w3.org/2000/svg">
<g clip-path="url(#clip0_1_41)">
<path d="M41.1175 8.40021H23.7968V40.0034H18.1774V8.40021H0V0H41.1175V8.40021Z" fill="#CAD748"/>
<path d="M84.6507 31.7739V40.0034H46.6341V0H84.6507V8.40021H52.2535V15.998H84.6507V24.1762H52.2535V31.7739H84.6507Z" fill="#CAD748"/>
<path d="M134.471 0V8.45143H108.447C103.462 8.45143 95.3241 8.91241 95.3241 20.2834C95.3241 31.6544 103.805 31.6032 108.516 31.6032H135.054V40.0034H108.516C100.601 40.0034 91.1438 35.9399 91.1438 20.2834C91.1267 5.82209 101.046 0.0512208 108.396 0H134.489H134.471Z" fill="#CAD748"/>
<path d="M183.47 0V40.0034H177.85V24.3469H147.458V40.0034H141.838V0H147.458V15.6053H177.85V0H183.47Z" fill="#CAD748"/>
<path d="M239.612 33.7374H234.455V42.5303H228.785V8.87826L207.455 25.3884H223.611V34.3008H199.42V25.3884L228.596 2.54396H234.455V25.3884H239.612V33.7374Z" fill="#CAD748"/>
<path d="M50.763 87.5363C50.763 98.5146 40.9633 100 35.738 100H7.88085V91.4291H42.2825C45.0922 91.4291 47.0967 89.9949 47.0967 87.5363C47.0967 85.0777 44.8009 83.6435 42.4024 83.6435H20.85C14.4939 83.6435 6.97284 81.1337 6.97284 71.4188C6.97284 62.7284 16.3099 59.9966 21.9979 59.9966H49.855V68.5675H15.2135C12.4038 68.5675 10.3993 70.0017 10.3993 72.392C10.3993 74.7823 12.695 76.1653 15.0935 76.1653H36.8858C44.9037 76.1653 50.763 79.2556 50.763 87.5363Z" fill="#CAD748"/>
<path d="M96.9003 68.3968H79.5795V100H73.9601V68.3968H55.7828V59.9966H96.9003V68.3968Z" fill="#CAD748"/>
<path d="M142.918 88.629C142.746 99.6073 134.831 100 129.846 100H115.574C110.52 100 102.622 99.6585 102.451 88.629V59.9966H108.071V85.3167C108.071 88.407 109.441 91.5486 115.643 91.5486H129.691C136.065 91.5486 137.315 88.4583 137.315 85.146V59.9966H142.935V88.629H142.918Z" fill="#CAD748"/>
<path d="M177.713 59.9966H150.764V100H178.176C186.091 100 195.548 94.7413 195.548 80.0068C195.548 66.6382 187.29 60.0137 177.713 60.0137V59.9966ZM178.176 91.7705H156.384V68.5163H178.227C183.213 68.5163 191.351 69.831 191.351 80.0068C191.351 90.1827 182.87 91.7705 178.159 91.7705H178.176Z" fill="#CAD748"/>
<path d="M222.017 84.685V100H216.398V84.685H212.732L197.141 59.9966H203.155L213.486 76.1653H224.724L234.987 59.9966H241L225.581 84.685H222.017Z" fill="#CAD748"/>
</g>
<defs>
<clipPath id="clip0_1_41">
<rect width="241" height="100" fill="white"/>
</clipPath>
</defs>
</svg>
