<?xml version="1.0" encoding="UTF-8"?>
<svg id="Réteg_2" xmlns="http://www.w3.org/2000/svg" viewBox="0 0 140.67 58.57">
  <defs>
    <style>
      .cls-1 {
        fill: #cad748;
      }
    </style>
  </defs>
  <g id="Réteg_1">
    <g>
      <g>
        <polygon class="cls-1" points="24 4.92 13.89 4.92 13.89 23.43 10.61 23.43 10.61 4.92 0 4.92 0 0 24 0 24 4.92"/>
        <polygon class="cls-1" points="49.41 18.61 49.41 23.43 27.22 23.43 27.22 0 49.41 0 49.41 4.92 30.5 4.92 30.5 9.37 49.41 9.37 49.41 14.16 30.5 14.16 30.5 18.61 49.41 18.61"/>
        <path class="cls-1" d="M78.49,0v4.95h-15.19c-2.91,0-7.66.27-7.66,6.93s4.95,6.63,7.7,6.63h15.49v4.92h-15.49c-4.62,0-10.14-2.38-10.14-11.55C53.19,3.41,58.98.03,63.27,0h15.23Z"/>
        <polygon class="cls-1" points="107.09 0 107.09 23.43 103.81 23.43 103.81 14.26 86.07 14.26 86.07 23.43 82.79 23.43 82.79 0 86.07 0 86.07 9.14 103.81 9.14 103.81 0 107.09 0"/>
        <polygon class="cls-1" points="139.86 19.76 136.85 19.76 136.85 24.91 133.54 24.91 133.54 5.2 121.09 14.87 130.52 14.87 130.52 20.09 116.4 20.09 116.4 14.87 133.43 1.49 136.85 1.49 136.85 14.87 139.86 14.87 139.86 19.76"/>
        <path class="cls-1" d="M29.63,51.27c0,6.43-5.72,7.3-8.77,7.3H4.6v-5.02h20.08c1.64,0,2.81-.84,2.81-2.28s-1.34-2.28-2.74-2.28h-12.58c-3.71,0-8.1-1.47-8.1-7.16,0-5.09,5.45-6.69,8.77-6.69h16.26v5.02H8.88c-1.64,0-2.81.84-2.81,2.24s1.34,2.21,2.74,2.21h12.72c4.68,0,8.1,1.81,8.1,6.66Z"/>
        <polygon class="cls-1" points="56.56 40.06 46.45 40.06 46.45 58.57 43.17 58.57 43.17 40.06 32.56 40.06 32.56 35.14 56.56 35.14 56.56 40.06"/>
        <path class="cls-1" d="M83.42,51.91c-.1,6.43-4.72,6.66-7.63,6.66h-8.33c-2.95,0-7.56-.2-7.66-6.66v-16.77h3.28v14.83c0,1.81.8,3.65,4.42,3.65h8.2c3.72,0,4.45-1.81,4.45-3.75v-14.73h3.28v16.77Z"/>
        <path class="cls-1" d="M103.73,35.14h-15.73v23.43h16c4.62,0,10.14-3.08,10.14-11.71,0-7.83-4.82-11.71-10.41-11.71ZM104,53.75h-12.72v-13.62h12.75c2.91,0,7.66.77,7.66,6.73s-4.95,6.89-7.7,6.89Z"/>
        <polygon class="cls-1" points="129.59 49.6 129.59 58.57 126.31 58.57 126.31 49.6 124.17 49.6 115.07 35.14 118.58 35.14 124.61 44.61 131.17 44.61 137.16 35.14 140.67 35.14 131.67 49.6 129.59 49.6"/>
      </g>
      <circle class="cls-1" cx="127.91" cy="37.55" r="2.97"/>
    </g>
  </g>
</svg>