<svg width="615" height="753" viewBox="0 0 615 753" fill="none" xmlns="http://www.w3.org/2000/svg">
<g clip-path="url(#clip0_4_16)">
<g opacity="0.51">
<path d="M504.13 396.477C511.509 338.014 504.217 279.221 492.08 235.222C479.943 191.224 462.926 162.001 450.876 162.661C439.937 163.268 440.788 188.098 423.668 218.224C394.897 268.855 337.771 295.005 288.042 310.198C238.313 325.373 195.964 329.575 196.797 336.295C197.596 342.824 237.532 339.038 279.725 339.143C321.918 339.247 366.386 343.206 376.214 365.24C387.448 390.417 347.998 426.897 308.67 465.462C269.342 504.026 230.17 544.691 241.942 578.22C254.531 614.075 321.258 629.945 369.859 617.583C479.752 589.628 501.664 416.097 504.13 396.494L504.13 396.477Z" stroke="#CAD748" stroke-miterlimit="10"/>
<path d="M370.675 634.39C424.05 624.111 462.979 586.311 488.763 541.774C522.136 484.145 533.248 416.844 535.124 393.976C539.985 334.298 532.641 275.263 518.542 229.84C505.467 187.699 488.156 159.431 474.768 156.184C459.923 152.59 456.016 170.735 432.94 193.55C422.018 204.35 407.867 213.171 392.9 222.165C351.801 246.891 303.982 269.602 262.882 288.563C213.292 311.431 171.169 324.089 172.28 341.313C172.801 349.37 208.118 348.033 245.345 350.655C282.573 353.277 322.248 359.823 331.763 381.753C342.702 407.051 309.538 442.004 277.016 478.762C244.495 515.52 211.469 554.71 225.534 586.207C243.626 626.733 315.164 645.208 370.657 634.39L370.675 634.39Z" stroke="#CAD748" stroke-miterlimit="10"/>
<path d="M371.508 651.216C432.072 642.412 479.127 604.195 510.676 556.116C549.292 497.237 564.016 425.908 566.135 391.493C569.851 330.756 561.169 271.304 545.021 224.457C531.147 184.174 513.35 156.219 498.678 149.708C479.838 141.356 470.202 153.302 442.229 168.894C427.592 177.055 409.464 182.837 390.573 190.546C338.709 211.73 283.493 239.581 237.775 266.928C188.185 296.585 146.634 318.584 147.815 346.331C148.214 355.881 178.791 357.044 211 362.167C243.21 367.289 278.162 376.422 287.348 398.265C298.009 423.703 271.095 457.127 245.415 492.062C219.578 527.206 193.463 564.59 209.177 594.194C233.208 639.443 309.139 660.488 371.508 651.216Z" stroke="#CAD748" stroke-miterlimit="10"/>
<path d="M372.342 668.023C440.094 660.679 495.153 622.01 532.571 570.441C576.275 510.225 594.958 434.954 597.111 388.993C600.028 327.231 589.766 267.327 571.483 219.074C556.915 180.614 538.631 152.764 522.57 143.248C499.893 129.809 483.693 135.226 451.484 144.238C432.801 149.464 411.027 152.52 388.212 158.945C325.564 176.604 262.778 209.16 212.633 245.311C162.487 281.461 122.187 313.08 123.315 351.384C123.645 362.444 149.499 366.143 176.638 373.713C203.777 381.284 234.059 393.073 242.914 414.795C253.28 440.371 232.653 472.32 213.779 505.38C194.905 538.44 175.805 574.313 192.804 602.199C223.19 652.032 303.079 675.785 372.359 668.058L372.342 668.023Z" stroke="#CAD748" stroke-miterlimit="10"/>
<path d="M373.175 684.849C448.133 678.98 511.075 639.756 554.484 584.766C603.154 523.126 626.073 444 628.122 386.475C630.362 323.672 618.503 263.299 597.962 213.675C582.786 177.003 564.051 149.204 546.479 136.754C520.139 118.071 497.098 116.491 460.773 119.547C437.975 121.475 412.625 122.169 385.868 127.309C312.455 141.425 241.821 178.375 187.49 223.659C137.206 265.574 97.8255 307.559 98.8153 356.385C99.0757 368.956 120.259 375.293 142.259 385.208C165.474 395.678 189.939 409.656 198.447 431.29C208.517 457.006 194.175 487.531 182.108 518.663C170.04 549.796 158.372 583.88 176.378 610.151C213.518 664.36 296.967 691.03 373.14 684.831L373.175 684.849Z" stroke="#CAD748" stroke-miterlimit="10"/>
<path d="M374.008 701.674C456.155 697.263 526.911 657.449 576.397 599.108C629.963 535.975 657.362 453.064 659.133 383.992C660.765 320.164 647.343 259.253 624.441 208.309C608.762 173.409 589.523 145.662 570.389 130.295C540.489 106.299 510.711 97.4263 470.063 94.9086C443.254 93.2417 414.222 91.8526 383.541 95.7073C299.346 106.299 220.654 147.433 162.383 202.041C111.421 249.79 73.5689 302.054 74.3502 361.42C74.5412 375.502 91.0712 384.652 107.931 396.737C126.527 410.072 145.853 426.29 154.048 447.82C163.841 473.675 155.854 502.845 150.524 531.981C145.193 561.117 141.165 593.343 160.039 618.156C204.35 676.41 290.959 706.31 374.008 701.674Z" stroke="#CAD748" stroke-miterlimit="10"/>
<path d="M374.842 718.499C464.177 715.565 542.694 675.056 598.309 613.45C656.702 548.754 688.807 462.128 690.144 381.509C691.204 316.64 676.306 255.138 650.938 202.944C634.807 169.762 615.065 142.102 594.316 123.853C560.96 94.4919 524.584 78.2397 479.352 70.2699C448.688 64.8698 415.819 61.5535 381.197 64.1233C286.236 71.1902 199.245 116.37 137.241 180.441C85.4629 233.955 49.2949 296.585 49.8505 366.473C49.972 382.065 61.7271 394.254 73.569 408.284C87.425 424.71 101.75 442.924 109.615 464.368C119.113 490.361 117.603 518.212 118.887 545.316C120.259 574.174 124.01 602.702 143.648 626.178C195.495 688.113 284.882 721.624 374.824 718.534L374.842 718.499Z" stroke="#CAD748" stroke-miterlimit="10"/>
<path d="M375.675 735.307C472.216 733.831 558.443 692.593 620.204 627.775C681.966 562.957 720.391 471.174 721.138 378.992C721.659 313.063 705.389 250.919 677.4 197.544C660.887 166.047 640.624 138.525 618.208 117.359C581.432 82.6152 538.614 58.9315 488.624 45.579C454.21 36.3937 417.4 31.2021 378.853 32.487C273.127 36.0118 177.645 85.1677 112.116 158.789C59.383 218.05 25.0902 291.046 25.3681 371.473C25.4201 388.576 32.1224 403.891 39.2067 419.778C47.9926 439.451 57.6467 459.523 65.1824 480.863C74.385 506.995 79.4725 533.474 87.2513 558.599C95.7073 585.894 106.907 611.922 127.274 634.147C187.022 699.33 278.839 736.887 375.675 735.341L375.675 735.307Z" stroke="#CAD748" stroke-miterlimit="10"/>
<path d="M752.132 376.509C752.132 272.78 710.095 178.878 642.117 110.9C574.139 42.9225 480.238 0.885586 376.509 0.885595C169.05 0.885613 0.885553 169.068 0.885571 376.509C0.885581 480.238 42.9225 574.139 110.9 642.117C178.861 710.095 272.78 752.132 376.509 752.132C480.238 752.132 574.139 710.095 642.117 642.117C710.095 574.139 752.132 480.238 752.132 376.509Z" stroke="#CAD748" stroke-miterlimit="10"/>
</g>
</g>
<defs>
<clipPath id="clip0_4_16">
<rect width="753" height="753" fill="white" transform="translate(753 753) rotate(180)"/>
</clipPath>
</defs>
</svg>
