<svg width="187" height="187" viewBox="0 0 187 187" fill="none" xmlns="http://www.w3.org/2000/svg">
<circle cx="93.5" cy="93.5" r="90" fill="white" stroke="#CAD748" stroke-width="7"/>
<path d="M89.5 144C89.5 145.933 91.067 147.5 93 147.5C94.933 147.5 96.5 145.933 96.5 144L89.5 144ZM95.4749 41.5251C94.108 40.1583 91.892 40.1583 90.5251 41.5251L68.2513 63.799C66.8844 65.1658 66.8844 67.3819 68.2513 68.7487C69.6181 70.1156 71.8342 70.1156 73.201 68.7487L93 48.9497L112.799 68.7487C114.166 70.1156 116.382 70.1156 117.749 68.7487C119.116 67.3819 119.116 65.1658 117.749 63.799L95.4749 41.5251ZM96.5 144L96.5 44L89.5 44L89.5 144L96.5 144Z" fill="#CAD748"/>
</svg>
