<svg id="visual" viewBox="0 0 960 540" width="960" height="540" xmlns="http://www.w3.org/2000/svg" xmlns:xlink="http://www.w3.org/1999/xlink" version="1.1"><path d="M0 420L22.8 424.7C45.7 429.3 91.3 438.7 137 443.8C182.7 449 228.3 450 274 453.8C319.7 457.7 365.3 464.3 411.2 455C457 445.7 503 420.3 548.8 407.8C594.7 395.3 640.3 395.7 686 399.2C731.7 402.7 777.3 409.3 823 413C868.7 416.7 914.3 417.3 937.2 417.7L960 418L960 541L937.2 541C914.3 541 868.7 541 823 541C777.3 541 731.7 541 686 541C640.3 541 594.7 541 548.8 541C503 541 457 541 411.2 541C365.3 541 319.7 541 274 541C228.3 541 182.7 541 137 541C91.3 541 45.7 541 22.8 541L0 541Z" fill="#ebebeb" stroke-linecap="round" stroke-linejoin="miter"></path></svg>