<svg id="visual" viewBox="0 0 960 540" width="960" height="540" xmlns="http://www.w3.org/2000/svg" xmlns:xlink="http://www.w3.org/1999/xlink" version="1.1"><path d="M0 130L22.8 119.7C45.7 109.3 91.3 88.7 137 92.3C182.7 96 228.3 124 274 139C319.7 154 365.3 156 411.2 143.2C457 130.3 503 102.7 548.8 102.3C594.7 102 640.3 129 686 147.5C731.7 166 777.3 176 823 162.7C868.7 149.3 914.3 112.7 937.2 94.3L960 76L960 0L937.2 0C914.3 0 868.7 0 823 0C777.3 0 731.7 0 686 0C640.3 0 594.7 0 548.8 0C503 0 457 0 411.2 0C365.3 0 319.7 0 274 0C228.3 0 182.7 0 137 0C91.3 0 45.7 0 22.8 0L0 0Z" fill="#ebebeb" stroke-linecap="round" stroke-linejoin="miter"></path></svg>